<svg width="422" height="76" viewBox="0 0 422 76" fill="none" xmlns="http://www.w3.org/2000/svg">
<mask id="path-1-outside-1_120_290" maskUnits="userSpaceOnUse" x="2" y="10.0312" width="205" height="28" fill="black">
<rect fill="white" x="2" y="10.0312" width="205" height="28"/>
<path d="M19.7057 36.0312H8.85485L2.57662 29.499V17.5232L8.96372 11.3538H19.4879L24.4234 17.1603L21.7016 19.4465L17.8186 14.9465H10.4153L6.16936 19.0474V28.0474L10.379 32.4385H19.0162L22.9718 30.7329L24.4234 33.999L19.7057 36.0312ZM34.422 36.0312H30.8292V11.3538H34.422V21.6966H49.8091V11.3538H53.4019V36.0312H49.8091V25.253H34.422V36.0312ZM84.0567 35.1966L80.718 36.5756L78.0325 29.6804H64.714L61.9922 36.5756L58.6898 35.1966L68.0527 11.3538H74.6575L84.0567 35.1966ZM70.6656 14.5474L66.093 26.124H76.6172L72.0809 14.5474H70.6656ZM92.9133 36.0312H89.3205V11.3538H105.651L110.296 15.2006V22.7127L105.506 26.632H92.9133V36.0312ZM92.9133 14.9465V23.1119H104.2L106.704 21.0433V16.8336L104.381 14.9465H92.9133ZM135.222 36.0312H116.351V11.3538H134.678V14.8014H119.944V21.6603H132.137V25.1078H119.944V32.5474H135.222V36.0312ZM158.817 36.0312H141.397V11.3538H144.99V32.4748H158.817V36.0312ZM181.63 36.0312H164.211V11.3538H167.803V32.4748H181.63V36.0312ZM205.895 36.0312H187.024V11.3538H205.35V14.8014H190.617V21.6603H202.81V25.1078H190.617V32.5474H205.895V36.0312Z"/>
</mask>
<path d="M19.7057 36.0312H8.85485L2.57662 29.499V17.5232L8.96372 11.3538H19.4879L24.4234 17.1603L21.7016 19.4465L17.8186 14.9465H10.4153L6.16936 19.0474V28.0474L10.379 32.4385H19.0162L22.9718 30.7329L24.4234 33.999L19.7057 36.0312ZM34.422 36.0312H30.8292V11.3538H34.422V21.6966H49.8091V11.3538H53.4019V36.0312H49.8091V25.253H34.422V36.0312ZM84.0567 35.1966L80.718 36.5756L78.0325 29.6804H64.714L61.9922 36.5756L58.6898 35.1966L68.0527 11.3538H74.6575L84.0567 35.1966ZM70.6656 14.5474L66.093 26.124H76.6172L72.0809 14.5474H70.6656ZM92.9133 36.0312H89.3205V11.3538H105.651L110.296 15.2006V22.7127L105.506 26.632H92.9133V36.0312ZM92.9133 14.9465V23.1119H104.2L106.704 21.0433V16.8336L104.381 14.9465H92.9133ZM135.222 36.0312H116.351V11.3538H134.678V14.8014H119.944V21.6603H132.137V25.1078H119.944V32.5474H135.222V36.0312ZM158.817 36.0312H141.397V11.3538H144.99V32.4748H158.817V36.0312ZM181.63 36.0312H164.211V11.3538H167.803V32.4748H181.63V36.0312ZM205.895 36.0312H187.024V11.3538H205.35V14.8014H190.617V21.6603H202.81V25.1078H190.617V32.5474H205.895V36.0312Z" fill="#FCF3F0"/>
<path d="M19.7057 36.0312V36.4633H19.7948L19.8766 36.428L19.7057 36.0312ZM8.85485 36.0312L8.54336 36.3306L8.67086 36.4633H8.85485V36.0312ZM2.57662 29.499H2.14459V29.6729L2.26513 29.7984L2.57662 29.499ZM2.57662 17.5232L2.27647 17.2124L2.14459 17.3398V17.5232H2.57662ZM8.96372 11.3538V10.9218H8.78914L8.66357 11.0431L8.96372 11.3538ZM19.4879 11.3538L19.8171 11.074L19.6877 10.9218H19.4879V11.3538ZM24.4234 17.1603L24.7013 17.4911L25.034 17.2116L24.7526 16.8805L24.4234 17.1603ZM21.7016 19.4466L21.3746 19.7288L21.6531 20.0516L21.9795 19.7774L21.7016 19.4466ZM17.8186 14.9465L18.1457 14.6643L18.0164 14.5145H17.8186V14.9465ZM10.4153 14.9465V14.5145H10.2408L10.1152 14.6358L10.4153 14.9465ZM6.16936 19.0474L5.86923 18.7366L5.73733 18.864V19.0474H6.16936ZM6.16936 28.0474H5.73733V28.221L5.8575 28.3463L6.16936 28.0474ZM10.379 32.4385L10.0672 32.7375L10.1947 32.8705H10.379V32.4385ZM19.0162 32.4385V32.8705H19.1053L19.1872 32.8352L19.0162 32.4385ZM22.9718 30.7329L23.3666 30.5574L23.1931 30.167L22.8007 30.3361L22.9718 30.7329ZM24.4234 33.999L24.5943 34.3958L24.9957 34.2229L24.8182 33.8235L24.4234 33.999ZM19.7057 36.0312V35.5992H8.85485V36.0312V36.4633H19.7057V36.0312ZM8.85485 36.0312L9.16634 35.7319L2.8881 29.1996L2.57662 29.499L2.26513 29.7984L8.54336 36.3306L8.85485 36.0312ZM2.57662 29.499H3.00864V17.5232H2.57662H2.14459V29.499H2.57662ZM2.57662 17.5232L2.87676 17.8339L9.26387 11.6645L8.96372 11.3538L8.66357 11.0431L2.27647 17.2124L2.57662 17.5232ZM8.96372 11.3538V11.7858H19.4879V11.3538V10.9218H8.96372V11.3538ZM19.4879 11.3538L19.1588 11.6336L24.0942 17.4401L24.4234 17.1603L24.7526 16.8805L19.8171 11.074L19.4879 11.3538ZM24.4234 17.1603L24.1455 16.8294L21.4238 19.1157L21.7016 19.4466L21.9795 19.7774L24.7013 17.4911L24.4234 17.1603ZM21.7016 19.4466L22.0287 19.1643L18.1457 14.6643L17.8186 14.9465L17.4915 15.2288L21.3746 19.7288L21.7016 19.4466ZM17.8186 14.9465V14.5145H10.4153V14.9465V15.3786H17.8186V14.9465ZM10.4153 14.9465L10.1152 14.6358L5.86923 18.7366L6.16936 19.0474L6.46949 19.3581L10.7155 15.2573L10.4153 14.9465ZM6.16936 19.0474H5.73733V28.0474H6.16936H6.60139V19.0474H6.16936ZM6.16936 28.0474L5.8575 28.3463L10.0672 32.7375L10.379 32.4385L10.6909 32.1395L6.48123 27.7484L6.16936 28.0474ZM10.379 32.4385V32.8705H19.0162V32.4385V32.0065H10.379V32.4385ZM19.0162 32.4385L19.1872 32.8352L23.1429 31.1296L22.9718 30.7329L22.8007 30.3361L18.8451 32.0418L19.0162 32.4385ZM22.9718 30.7329L22.577 30.9083L24.0286 34.1745L24.4234 33.999L24.8182 33.8235L23.3666 30.5574L22.9718 30.7329ZM24.4234 33.999L24.2525 33.6022L19.5348 35.6345L19.7057 36.0312L19.8766 36.428L24.5943 34.3958L24.4234 33.999ZM34.422 36.0312V36.4633H34.854V36.0312H34.422ZM30.8292 36.0312H30.3972V36.4633H30.8292V36.0312ZM30.8292 11.3538V10.9218H30.3972V11.3538H30.8292ZM34.422 11.3538H34.854V10.9218H34.422V11.3538ZM34.422 21.6966H33.99V22.1286H34.422V21.6966ZM49.8091 21.6966V22.1286H50.2411V21.6966H49.8091ZM49.8091 11.3538V10.9218H49.3771V11.3538H49.8091ZM53.4019 11.3538H53.8339V10.9218H53.4019V11.3538ZM53.4019 36.0312V36.4633H53.8339V36.0312H53.4019ZM49.8091 36.0312H49.3771V36.4633H49.8091V36.0312ZM49.8091 25.253H50.2411V24.821H49.8091V25.253ZM34.422 25.253V24.821H33.99V25.253H34.422ZM34.422 36.0312V35.5992H30.8292V36.0312V36.4633H34.422V36.0312ZM30.8292 36.0312H31.2613V11.3538H30.8292H30.3972V36.0312H30.8292ZM30.8292 11.3538V11.7858H34.422V11.3538V10.9218H30.8292V11.3538ZM34.422 11.3538H33.99V21.6966H34.422H34.854V11.3538H34.422ZM34.422 21.6966V22.1286H49.8091V21.6966V21.2645H34.422V21.6966ZM49.8091 21.6966H50.2411V11.3538H49.8091H49.3771V21.6966H49.8091ZM49.8091 11.3538V11.7858H53.4019V11.3538V10.9218H49.8091V11.3538ZM53.4019 11.3538H52.9698V36.0312H53.4019H53.8339V11.3538H53.4019ZM53.4019 36.0312V35.5992H49.8091V36.0312V36.4633H53.4019V36.0312ZM49.8091 36.0312H50.2411V25.253H49.8091H49.3771V36.0312H49.8091ZM49.8091 25.253V24.821H34.422V25.253V25.685H49.8091V25.253ZM34.422 25.253H33.99V36.0312H34.422H34.854V25.253H34.422ZM84.0567 35.1966L84.2217 35.5959L84.6145 35.4336L84.4586 35.0381L84.0567 35.1966ZM80.718 36.5756L80.3154 36.7324L80.4754 37.1432L80.8829 36.9749L80.718 36.5756ZM78.0325 29.6804L78.4351 29.5236L78.3279 29.2484H78.0325V29.6804ZM64.714 29.6804V29.2484H64.42L64.3121 29.5218L64.714 29.6804ZM61.9922 36.5756L61.8257 36.9743L62.2323 37.144L62.394 36.7342L61.9922 36.5756ZM58.6898 35.1966L58.2876 35.0387L58.133 35.4323L58.5233 35.5952L58.6898 35.1966ZM68.0527 11.3538V10.9218H67.7582L67.6505 11.1959L68.0527 11.3538ZM74.6575 11.3538L75.0594 11.1954L74.9516 10.9218H74.6575V11.3538ZM70.6656 14.5473V14.1153H70.3717L70.2638 14.3886L70.6656 14.5473ZM66.093 26.124L65.6912 25.9653L65.4578 26.556H66.093V26.124ZM76.6172 26.124V26.556H77.2505L77.0194 25.9664L76.6172 26.124ZM72.0809 14.5473L72.4831 14.3897L72.3756 14.1153H72.0809V14.5473ZM84.0567 35.1966L83.8918 34.7973L80.5531 36.1763L80.718 36.5756L80.8829 36.9749L84.2217 35.5959L84.0567 35.1966ZM80.718 36.5756L81.1206 36.4188L78.4351 29.5236L78.0325 29.6804L77.63 29.8372L80.3154 36.7324L80.718 36.5756ZM78.0325 29.6804V29.2484H64.714V29.6804V30.1125H78.0325V29.6804ZM64.714 29.6804L64.3121 29.5218L61.5903 36.417L61.9922 36.5756L62.394 36.7342L65.1158 29.8391L64.714 29.6804ZM61.9922 36.5756L62.1587 36.1769L58.8562 34.7979L58.6898 35.1966L58.5233 35.5952L61.8257 36.9743L61.9922 36.5756ZM58.6898 35.1966L59.0919 35.3545L68.4548 11.5117L68.0527 11.3538L67.6505 11.1959L58.2876 35.0387L58.6898 35.1966ZM68.0527 11.3538V11.7858H74.6575V11.3538V10.9218H68.0527V11.3538ZM74.6575 11.3538L74.2556 11.5122L83.6548 35.355L84.0567 35.1966L84.4586 35.0381L75.0594 11.1954L74.6575 11.3538ZM70.6656 14.5473L70.2638 14.3886L65.6912 25.9653L66.093 26.124L66.4948 26.2827L71.0674 14.7061L70.6656 14.5473ZM66.093 26.124V26.556H76.6172V26.124V25.6919H66.093V26.124ZM76.6172 26.124L77.0194 25.9664L72.4831 14.3897L72.0809 14.5473L71.6786 14.705L76.215 26.2816L76.6172 26.124ZM72.0809 14.5473V14.1153H70.6656V14.5473V14.9794H72.0809V14.5473ZM92.9133 36.0312V36.4633H93.3453V36.0312H92.9133ZM89.3205 36.0312H88.8885V36.4633H89.3205V36.0312ZM89.3205 11.3538V10.9218H88.8885V11.3538H89.3205ZM105.651 11.3538L105.927 11.0211L105.807 10.9218H105.651V11.3538ZM110.296 15.2006H110.728V14.9974L110.572 14.8678L110.296 15.2006ZM110.296 22.7127L110.57 23.0471L110.728 22.9174V22.7127H110.296ZM105.506 26.632V27.0641H105.66L105.78 26.9664L105.506 26.632ZM92.9133 26.632V26.2H92.4812V26.632H92.9133ZM92.9133 14.9465V14.5145H92.4812V14.9465H92.9133ZM92.9133 23.1119H92.4812V23.5439H92.9133V23.1119ZM104.2 23.1119V23.5439H104.355L104.475 23.445L104.2 23.1119ZM106.704 21.0433L106.979 21.3764L107.136 21.2468V21.0433H106.704ZM106.704 16.8336H107.136V16.628L106.976 16.4983L106.704 16.8336ZM104.381 14.9465L104.653 14.6112L104.534 14.5145H104.381V14.9465ZM92.9133 36.0312V35.5992H89.3205V36.0312V36.4633H92.9133V36.0312ZM89.3205 36.0312H89.7526V11.3538H89.3205H88.8885V36.0312H89.3205ZM89.3205 11.3538V11.7858H105.651V11.3538V10.9218H89.3205V11.3538ZM105.651 11.3538L105.376 11.6865L110.021 15.5333L110.296 15.2006L110.572 14.8678L105.927 11.0211L105.651 11.3538ZM110.296 15.2006H109.864V22.7127H110.296H110.728V15.2006H110.296ZM110.296 22.7127L110.023 22.3783L105.232 26.2977L105.506 26.632L105.78 26.9664L110.57 23.0471L110.296 22.7127ZM105.506 26.632V26.2H92.9133V26.632V27.0641H105.506V26.632ZM92.9133 26.632H92.4812V36.0312H92.9133H93.3453V26.632H92.9133ZM92.9133 14.9465H92.4812V23.1119H92.9133H93.3453V14.9465H92.9133ZM92.9133 23.1119V23.5439H104.2V23.1119V22.6798H92.9133V23.1119ZM104.2 23.1119L104.475 23.445L106.979 21.3764L106.704 21.0433L106.428 20.7102L103.924 22.7788L104.2 23.1119ZM106.704 21.0433H107.136V16.8336H106.704H106.272V21.0433H106.704ZM106.704 16.8336L106.976 16.4983L104.653 14.6112L104.381 14.9465L104.109 15.2818L106.431 17.1689L106.704 16.8336ZM104.381 14.9465V14.5145H92.9133V14.9465V15.3786H104.381V14.9465ZM135.222 36.0312V36.4633H135.654V36.0312H135.222ZM116.351 36.0312H115.919V36.4633H116.351V36.0312ZM116.351 11.3538V10.9218H115.919V11.3538H116.351ZM134.678 11.3538H135.11V10.9218H134.678V11.3538ZM134.678 14.8014V15.2334H135.11V14.8014H134.678ZM119.944 14.8014V14.3694H119.512V14.8014H119.944ZM119.944 21.6603H119.512V22.0923H119.944V21.6603ZM132.137 21.6603H132.57V21.2282H132.137V21.6603ZM132.137 25.1078V25.5399H132.57V25.1078H132.137ZM119.944 25.1078V24.6758H119.512V25.1078H119.944ZM119.944 32.5474H119.512V32.9794H119.944V32.5474ZM135.222 32.5474H135.654V32.1153H135.222V32.5474ZM135.222 36.0312V35.5992H116.351V36.0312V36.4633H135.222V36.0312ZM116.351 36.0312H116.783V11.3538H116.351H115.919V36.0312H116.351ZM116.351 11.3538V11.7858H134.678V11.3538V10.9218H116.351V11.3538ZM134.678 11.3538H134.246V14.8014H134.678H135.11V11.3538H134.678ZM134.678 14.8014V14.3694H119.944V14.8014V15.2334H134.678V14.8014ZM119.944 14.8014H119.512V21.6603H119.944H120.376V14.8014H119.944ZM119.944 21.6603V22.0923H132.137V21.6603V21.2282H119.944V21.6603ZM132.137 21.6603H131.705V25.1078H132.137H132.57V21.6603H132.137ZM132.137 25.1078V24.6758H119.944V25.1078V25.5399H132.137V25.1078ZM119.944 25.1078H119.512V32.5474H119.944H120.376V25.1078H119.944ZM119.944 32.5474V32.9794H135.222V32.5474V32.1153H119.944V32.5474ZM135.222 32.5474H134.79V36.0312H135.222H135.654V32.5474H135.222ZM158.817 36.0312V36.4633H159.249V36.0312H158.817ZM141.397 36.0312H140.965V36.4633H141.397V36.0312ZM141.397 11.3538V10.9218H140.965V11.3538H141.397ZM144.99 11.3538H145.422V10.9218H144.99V11.3538ZM144.99 32.4748H144.558V32.9068H144.99V32.4748ZM158.817 32.4748H159.249V32.0428H158.817V32.4748ZM158.817 36.0312V35.5992H141.397V36.0312V36.4633H158.817V36.0312ZM141.397 36.0312H141.829V11.3538H141.397H140.965V36.0312H141.397ZM141.397 11.3538V11.7858H144.99V11.3538V10.9218H141.397V11.3538ZM144.99 11.3538H144.558V32.4748H144.99H145.422V11.3538H144.99ZM144.99 32.4748V32.9068H158.817V32.4748V32.0428H144.99V32.4748ZM158.817 32.4748H158.385V36.0312H158.817H159.249V32.4748H158.817ZM181.63 36.0312V36.4633H182.062V36.0312H181.63ZM164.211 36.0312H163.778V36.4633H164.211V36.0312ZM164.211 11.3538V10.9218H163.778V11.3538H164.211ZM167.803 11.3538H168.235V10.9218H167.803V11.3538ZM167.803 32.4748H167.371V32.9068H167.803V32.4748ZM181.63 32.4748H182.062V32.0428H181.63V32.4748ZM181.63 36.0312V35.5992H164.211V36.0312V36.4633H181.63V36.0312ZM164.211 36.0312H164.643V11.3538H164.211H163.778V36.0312H164.211ZM164.211 11.3538V11.7858H167.803V11.3538V10.9218H164.211V11.3538ZM167.803 11.3538H167.371V32.4748H167.803H168.235V11.3538H167.803ZM167.803 32.4748V32.9068H181.63V32.4748V32.0428H167.803V32.4748ZM181.63 32.4748H181.198V36.0312H181.63H182.062V32.4748H181.63ZM205.895 36.0312V36.4633H206.327V36.0312H205.895ZM187.024 36.0312H186.592V36.4633H187.024V36.0312ZM187.024 11.3538V10.9218H186.592V11.3538H187.024ZM205.35 11.3538H205.783V10.9218H205.35V11.3538ZM205.35 14.8014V15.2334H205.783V14.8014H205.35ZM190.617 14.8014V14.3694H190.185V14.8014H190.617ZM190.617 21.6603H190.185V22.0923H190.617V21.6603ZM202.81 21.6603H203.242V21.2282H202.81V21.6603ZM202.81 25.1078V25.5399H203.242V25.1078H202.81ZM190.617 25.1078V24.6758H190.185V25.1078H190.617ZM190.617 32.5474H190.185V32.9794H190.617V32.5474ZM205.895 32.5474H206.327V32.1153H205.895V32.5474ZM205.895 36.0312V35.5992H187.024V36.0312V36.4633H205.895V36.0312ZM187.024 36.0312H187.456V11.3538H187.024H186.592V36.0312H187.024ZM187.024 11.3538V11.7858H205.35V11.3538V10.9218H187.024V11.3538ZM205.35 11.3538H204.918V14.8014H205.35H205.783V11.3538H205.35ZM205.35 14.8014V14.3694H190.617V14.8014V15.2334H205.35V14.8014ZM190.617 14.8014H190.185V21.6603H190.617H191.049V14.8014H190.617ZM190.617 21.6603V22.0923H202.81V21.6603V21.2282H190.617V21.6603ZM202.81 21.6603H202.378V25.1078H202.81H203.242V21.6603H202.81ZM202.81 25.1078V24.6758H190.617V25.1078V25.5399H202.81V25.1078ZM190.617 25.1078H190.185V32.5474H190.617H191.049V25.1078H190.617ZM190.617 32.5474V32.9794H205.895V32.5474V32.1153H190.617V32.5474ZM205.895 32.5474H205.463V36.0312H205.895H206.327V32.5474H205.895Z" fill="#FCF3F0" mask="url(#path-1-outside-1_120_290)"/>
<mask id="path-3-outside-2_120_290" maskUnits="userSpaceOnUse" x="223.824" y="10.0312" width="198" height="28" fill="black">
<rect fill="white" x="223.824" y="10.0312" width="198" height="28"/>
<path d="M228.719 36.0312H225.127V11.3538H228.719V36.0312ZM240.015 36.0312H236.422V11.3538H243.753L253.66 32.5474H255.075V11.3538H258.668V36.0312H251.337L241.43 14.8014H240.015V36.0312ZM281.528 36.0312H266.359V11.3538H281.528L288.242 17.8498V29.5353L281.528 36.0312ZM269.951 14.9465V32.4385H280.077L284.649 28.0111V19.374L280.077 14.9465H269.951ZM311.056 36.0312H300.423L295.197 30.5877V11.3538H298.79V29.1361L301.983 32.4385H309.495L312.689 29.1361V11.3538H316.282V30.5877L311.056 36.0312ZM338.444 36.0312H326.686L321.932 30.4788L324.654 28.1562L328.319 32.4385H336.992L339.387 30.1159V27.0312L332.383 25.0353L323.02 23.4385V15.7449L327.992 11.3538H337.246L341.311 13.8215L342.98 17.7046L339.714 19.0111L338.516 16.2893L336.339 14.9465H329.299L326.613 17.3417V20.5353L333.581 21.7328L342.98 24.4546V31.6401L338.444 36.0312ZM359.6 36.0312H356.007V14.9103H347.007V11.3538H368.564V14.9103H359.6V36.0312ZM377.578 36.0312H373.985V11.3538H390.134L394.816 15.2006V21.7691L392.058 24.128L395.179 26.2328V32.9103L396.122 35.1603L392.929 36.5756L391.586 33.4909V28.0837L388.284 25.8699H377.578V36.0312ZM377.578 14.9103V22.3861H388.647L391.223 20.2086V16.8336L388.864 14.9103H377.578ZM411.636 36.0312H408.043V27.0312H406.918L399.152 12.5151L402.31 10.8094L409.132 23.5837H410.547L417.37 10.8094L420.527 12.5151L412.761 27.0312H411.636V36.0312Z"/>
</mask>
<path d="M228.719 36.0312H225.127V11.3538H228.719V36.0312ZM240.015 36.0312H236.422V11.3538H243.753L253.66 32.5474H255.075V11.3538H258.668V36.0312H251.337L241.43 14.8014H240.015V36.0312ZM281.528 36.0312H266.359V11.3538H281.528L288.242 17.8498V29.5353L281.528 36.0312ZM269.951 14.9465V32.4385H280.077L284.649 28.0111V19.374L280.077 14.9465H269.951ZM311.056 36.0312H300.423L295.197 30.5877V11.3538H298.79V29.1361L301.983 32.4385H309.495L312.689 29.1361V11.3538H316.282V30.5877L311.056 36.0312ZM338.444 36.0312H326.686L321.932 30.4788L324.654 28.1562L328.319 32.4385H336.992L339.387 30.1159V27.0312L332.383 25.0353L323.02 23.4385V15.7449L327.992 11.3538H337.246L341.311 13.8215L342.98 17.7046L339.714 19.0111L338.516 16.2893L336.339 14.9465H329.299L326.613 17.3417V20.5353L333.581 21.7328L342.98 24.4546V31.6401L338.444 36.0312ZM359.6 36.0312H356.007V14.9103H347.007V11.3538H368.564V14.9103H359.6V36.0312ZM377.578 36.0312H373.985V11.3538H390.134L394.816 15.2006V21.7691L392.058 24.128L395.179 26.2328V32.9103L396.122 35.1603L392.929 36.5756L391.586 33.4909V28.0837L388.284 25.8699H377.578V36.0312ZM377.578 14.9103V22.3861H388.647L391.223 20.2086V16.8336L388.864 14.9103H377.578ZM411.636 36.0312H408.043V27.0312H406.918L399.152 12.5151L402.31 10.8094L409.132 23.5837H410.547L417.37 10.8094L420.527 12.5151L412.761 27.0312H411.636V36.0312Z" fill="#FCF3F0"/>
<path d="M228.719 36.0312V36.4633H229.151V36.0312H228.719ZM225.127 36.0312H224.695V36.4633H225.127V36.0312ZM225.127 11.3538V10.9218H224.695V11.3538H225.127ZM228.719 11.3538H229.151V10.9218H228.719V11.3538ZM228.719 36.0312V35.5992H225.127V36.0312V36.4633H228.719V36.0312ZM225.127 36.0312H225.559V11.3538H225.127H224.695V36.0312H225.127ZM225.127 11.3538V11.7858H228.719V11.3538V10.9218H225.127V11.3538ZM228.719 11.3538H228.287V36.0312H228.719H229.151V11.3538H228.719ZM240.015 36.0312V36.4633H240.447V36.0312H240.015ZM236.422 36.0312H235.99V36.4633H236.422V36.0312ZM236.422 11.3538V10.9218H235.99V11.3538H236.422ZM243.753 11.3538L244.144 11.1708L244.028 10.9218H243.753V11.3538ZM253.66 32.5474L253.269 32.7303L253.385 32.9794H253.66V32.5474ZM255.075 32.5474V32.9794H255.507V32.5474H255.075ZM255.075 11.3538V10.9218H254.643V11.3538H255.075ZM258.668 11.3538H259.1V10.9218H258.668V11.3538ZM258.668 36.0312V36.4633H259.1V36.0312H258.668ZM251.337 36.0312L250.946 36.2139L251.062 36.4633H251.337V36.0312ZM241.43 14.8014L241.822 14.6187L241.705 14.3694H241.43V14.8014ZM240.015 14.8014V14.3694H239.583V14.8014H240.015ZM240.015 36.0312V35.5992H236.422V36.0312V36.4633H240.015V36.0312ZM236.422 36.0312H236.854V11.3538H236.422H235.99V36.0312H236.422ZM236.422 11.3538V11.7858H243.753V11.3538V10.9218H236.422V11.3538ZM243.753 11.3538L243.361 11.5368L253.269 32.7303L253.66 32.5474L254.051 32.3644L244.144 11.1708L243.753 11.3538ZM253.66 32.5474V32.9794H255.075V32.5474V32.1153H253.66V32.5474ZM255.075 32.5474H255.507V11.3538H255.075H254.643V32.5474H255.075ZM255.075 11.3538V11.7858H258.668V11.3538V10.9218H255.075V11.3538ZM258.668 11.3538H258.236V36.0312H258.668H259.1V11.3538H258.668ZM258.668 36.0312V35.5992H251.337V36.0312V36.4633H258.668V36.0312ZM251.337 36.0312L251.729 35.8486L241.822 14.6187L241.43 14.8014L241.039 14.9841L250.946 36.2139L251.337 36.0312ZM241.43 14.8014V14.3694H240.015V14.8014V15.2334H241.43V14.8014ZM240.015 14.8014H239.583V36.0312H240.015H240.447V14.8014H240.015ZM281.528 36.0312V36.4633H281.703L281.829 36.3417L281.528 36.0312ZM266.359 36.0312H265.927V36.4633H266.359V36.0312ZM266.359 11.3538V10.9218H265.927V11.3538H266.359ZM281.528 11.3538L281.829 11.0433L281.703 10.9218H281.528V11.3538ZM288.242 17.8498H288.674V17.6666L288.542 17.5393L288.242 17.8498ZM288.242 29.5353L288.542 29.8458L288.674 29.7184V29.5353H288.242ZM269.951 14.9465V14.5145H269.519V14.9465H269.951ZM269.951 32.4385H269.519V32.8705H269.951V32.4385ZM280.076 32.4385V32.8705H280.251L280.377 32.7489L280.076 32.4385ZM284.649 28.0111L284.95 28.3215L285.081 28.1941V28.0111H284.649ZM284.649 19.374H285.081V19.1909L284.95 19.0636L284.649 19.374ZM280.076 14.9465L280.377 14.6362L280.251 14.5145H280.076V14.9465ZM281.528 36.0312V35.5992H266.359V36.0312V36.4633H281.528V36.0312ZM266.359 36.0312H266.791V11.3538H266.359H265.927V36.0312H266.359ZM266.359 11.3538V11.7858H281.528V11.3538V10.9218H266.359V11.3538ZM281.528 11.3538L281.228 11.6643L287.941 18.1603L288.242 17.8498L288.542 17.5393L281.829 11.0433L281.528 11.3538ZM288.242 17.8498H287.81V29.5353H288.242H288.674V17.8498H288.242ZM288.242 29.5353L287.941 29.2248L281.228 35.7208L281.528 36.0312L281.829 36.3417L288.542 29.8458L288.242 29.5353ZM269.951 14.9465H269.519V32.4385H269.951H270.384V14.9465H269.951ZM269.951 32.4385V32.8705H280.076V32.4385V32.0065H269.951V32.4385ZM280.076 32.4385L280.377 32.7489L284.95 28.3215L284.649 28.0111L284.349 27.7007L279.776 32.1281L280.076 32.4385ZM284.649 28.0111H285.081V19.374H284.649H284.217V28.0111H284.649ZM284.649 19.374L284.95 19.0636L280.377 14.6362L280.076 14.9465L279.776 15.2569L284.349 19.6843L284.649 19.374ZM280.076 14.9465V14.5145H269.951V14.9465V15.3786H280.076V14.9465ZM311.056 36.0312V36.4633H311.24L311.367 36.3304L311.056 36.0312ZM300.423 36.0312L300.111 36.3304L300.239 36.4633H300.423V36.0312ZM295.197 30.5877H294.765V30.7615L294.885 30.8869L295.197 30.5877ZM295.197 11.3538V10.9218H294.765V11.3538H295.197ZM298.79 11.3538H299.222V10.9218H298.79V11.3538ZM298.79 29.1361H298.358V29.3108L298.479 29.4364L298.79 29.1361ZM301.983 32.4385L301.673 32.7388L301.8 32.8705H301.983V32.4385ZM309.495 32.4385V32.8705H309.678L309.806 32.7388L309.495 32.4385ZM312.689 29.1361L312.999 29.4364L313.121 29.3108V29.1361H312.689ZM312.689 11.3538V10.9218H312.257V11.3538H312.689ZM316.282 11.3538H316.714V10.9218H316.282V11.3538ZM316.282 30.5877L316.593 30.8869L316.714 30.7615V30.5877H316.282ZM311.056 36.0312V35.5992H300.423V36.0312V36.4633H311.056V36.0312ZM300.423 36.0312L300.734 35.7321L295.508 30.2885L295.197 30.5877L294.885 30.8869L300.111 36.3304L300.423 36.0312ZM295.197 30.5877H295.629V11.3538H295.197H294.765V30.5877H295.197ZM295.197 11.3538V11.7858H298.79V11.3538V10.9218H295.197V11.3538ZM298.79 11.3538H298.358V29.1361H298.79H299.222V11.3538H298.79ZM298.79 29.1361L298.479 29.4364L301.673 32.7388L301.983 32.4385L302.294 32.1382L299.1 28.8358L298.79 29.1361ZM301.983 32.4385V32.8705H309.495V32.4385V32.0065H301.983V32.4385ZM309.495 32.4385L309.806 32.7388L312.999 29.4364L312.689 29.1361L312.378 28.8358L309.185 32.1382L309.495 32.4385ZM312.689 29.1361H313.121V11.3538H312.689H312.257V29.1361H312.689ZM312.689 11.3538V11.7858H316.282V11.3538V10.9218H312.689V11.3538ZM316.282 11.3538H315.85V30.5877H316.282H316.714V11.3538H316.282ZM316.282 30.5877L315.97 30.2885L310.744 35.7321L311.056 36.0312L311.367 36.3304L316.593 30.8869L316.282 30.5877ZM338.444 36.0312V36.4633H338.619L338.744 36.3417L338.444 36.0312ZM326.686 36.0312L326.358 36.3122L326.487 36.4633H326.686V36.0312ZM321.932 30.4788L321.651 30.1502L321.322 30.4311L321.604 30.7598L321.932 30.4788ZM324.654 28.1562L324.982 27.8753L324.701 27.5476L324.373 27.8276L324.654 28.1562ZM328.319 32.4385L327.991 32.7194L328.12 32.8705H328.319V32.4385ZM336.992 32.4385V32.8705H337.167L337.293 32.7487L336.992 32.4385ZM339.387 30.1159L339.688 30.4261L339.819 30.2988V30.1159H339.387ZM339.387 27.0312H339.819V26.7051L339.506 26.6158L339.387 27.0312ZM332.383 25.0353L332.502 24.6198L332.479 24.6133L332.456 24.6094L332.383 25.0353ZM323.02 23.4385H322.588V23.8031L322.948 23.8644L323.02 23.4385ZM323.02 15.7449L322.734 15.4211L322.588 15.5501V15.7449H323.02ZM327.992 11.3538V10.9218H327.829L327.706 11.03L327.992 11.3538ZM337.246 11.3538L337.471 10.9845L337.367 10.9218H337.246V11.3538ZM341.311 13.8215L341.708 13.6509L341.653 13.524L341.535 13.4522L341.311 13.8215ZM342.98 17.7046L343.141 18.1057L343.552 17.9411L343.377 17.534L342.98 17.7046ZM339.714 19.0111L339.319 19.1851L339.487 19.5673L339.875 19.4122L339.714 19.0111ZM338.516 16.2893L338.912 16.1153L338.858 15.9922L338.743 15.9216L338.516 16.2893ZM336.339 14.9465L336.566 14.5788L336.462 14.5145H336.339V14.9465ZM329.299 14.9465V14.5145H329.134L329.011 14.6241L329.299 14.9465ZM326.613 17.3417L326.326 17.0193L326.181 17.1481V17.3417H326.613ZM326.613 20.5353H326.181V20.8994L326.54 20.961L326.613 20.5353ZM333.581 21.7328L333.701 21.3179L333.678 21.3111L333.654 21.3071L333.581 21.7328ZM342.98 24.4546H343.412V24.1299L343.1 24.0396L342.98 24.4546ZM342.98 31.6401L343.281 31.9505L343.412 31.8232V31.6401H342.98ZM338.444 36.0312V35.5992H326.686V36.0312V36.4633H338.444V36.0312ZM326.686 36.0312L327.014 35.7503L322.26 30.1978L321.932 30.4788L321.604 30.7598L326.358 36.3122L326.686 36.0312ZM321.932 30.4788L322.212 30.8075L324.934 28.4849L324.654 28.1562L324.373 27.8276L321.651 30.1502L321.932 30.4788ZM324.654 28.1562L324.325 28.4372L327.991 32.7194L328.319 32.4385L328.647 32.1576L324.982 27.8753L324.654 28.1562ZM328.319 32.4385V32.8705H336.992V32.4385V32.0065H328.319V32.4385ZM336.992 32.4385L337.293 32.7487L339.688 30.4261L339.387 30.1159L339.087 29.8058L336.692 32.1283L336.992 32.4385ZM339.387 30.1159H339.819V27.0312H339.387H338.955V30.1159H339.387ZM339.387 27.0312L339.506 26.6158L332.502 24.6198L332.383 25.0353L332.265 25.4508L339.269 27.4467L339.387 27.0312ZM332.383 25.0353L332.456 24.6094L323.093 23.0126L323.02 23.4385L322.948 23.8644L332.311 25.4611L332.383 25.0353ZM323.02 23.4385H323.453V15.7449H323.02H322.588V23.4385H323.02ZM323.02 15.7449L323.306 16.0687L328.278 11.6776L327.992 11.3538L327.706 11.03L322.734 15.4211L323.02 15.7449ZM327.992 11.3538V11.7858H337.246V11.3538V10.9218H327.992V11.3538ZM337.246 11.3538L337.022 11.7231L341.087 14.1908L341.311 13.8215L341.535 13.4522L337.471 10.9845L337.246 11.3538ZM341.311 13.8215L340.914 13.9922L342.583 17.8752L342.98 17.7046L343.377 17.534L341.708 13.6509L341.311 13.8215ZM342.98 17.7046L342.82 17.3035L339.554 18.6099L339.714 19.0111L339.875 19.4122L343.141 18.1057L342.98 17.7046ZM339.714 19.0111L340.11 18.8371L338.912 16.1153L338.516 16.2893L338.121 16.4633L339.319 19.1851L339.714 19.0111ZM338.516 16.2893L338.743 15.9216L336.566 14.5788L336.339 14.9465L336.112 15.3143L338.29 16.657L338.516 16.2893ZM336.339 14.9465V14.5145H329.299V14.9465V15.3786H336.339V14.9465ZM329.299 14.9465L329.011 14.6241L326.326 17.0193L326.613 17.3417L326.901 17.6641L329.586 15.269L329.299 14.9465ZM326.613 17.3417H326.181V20.5353H326.613H327.045V17.3417H326.613ZM326.613 20.5353L326.54 20.961L333.508 22.1586L333.581 21.7328L333.654 21.3071L326.686 20.1095L326.613 20.5353ZM333.581 21.7328L333.461 22.1478L342.86 24.8696L342.98 24.4546L343.1 24.0396L333.701 21.3179L333.581 21.7328ZM342.98 24.4546H342.548V31.6401H342.98H343.412V24.4546H342.98ZM342.98 31.6401L342.68 31.3297L338.143 35.7208L338.444 36.0312L338.744 36.3417L343.281 31.9505L342.98 31.6401ZM359.6 36.0312V36.4633H360.032V36.0312H359.6ZM356.007 36.0312H355.575V36.4633H356.007V36.0312ZM356.007 14.9103H356.439V14.4782H356.007V14.9103ZM347.007 14.9103H346.575V15.3423H347.007V14.9103ZM347.007 11.3538V10.9218H346.575V11.3538H347.007ZM368.564 11.3538H368.996V10.9218H368.564V11.3538ZM368.564 14.9103V15.3423H368.996V14.9103H368.564ZM359.6 14.9103V14.4782H359.168V14.9103H359.6ZM359.6 36.0312V35.5992H356.007V36.0312V36.4633H359.6V36.0312ZM356.007 36.0312H356.439V14.9103H356.007H355.575V36.0312H356.007ZM356.007 14.9103V14.4782H347.007V14.9103V15.3423H356.007V14.9103ZM347.007 14.9103H347.439V11.3538H347.007H346.575V14.9103H347.007ZM347.007 11.3538V11.7858H368.564V11.3538V10.9218H347.007V11.3538ZM368.564 11.3538H368.132V14.9103H368.564H368.996V11.3538H368.564ZM368.564 14.9103V14.4782H359.6V14.9103V15.3423H368.564V14.9103ZM359.6 14.9103H359.168V36.0312H359.6H360.032V14.9103H359.6ZM377.578 36.0312V36.4633H378.01V36.0312H377.578ZM373.985 36.0312H373.553V36.4633H373.985V36.0312ZM373.985 11.3538V10.9218H373.553V11.3538H373.985ZM390.134 11.3538L390.409 11.02L390.289 10.9218H390.134V11.3538ZM394.816 15.2006H395.248V14.9964L395.09 14.8668L394.816 15.2006ZM394.816 21.7691L395.097 22.0975L395.248 21.9681V21.7691H394.816ZM392.058 24.128L391.777 23.7997L391.346 24.1687L391.816 24.4862L392.058 24.128ZM395.179 26.2328H395.611V26.0031L395.42 25.8747L395.179 26.2328ZM395.179 32.9103H394.747V32.9972L394.78 33.0774L395.179 32.9103ZM396.122 35.1603L396.297 35.5553L396.685 35.3837L396.521 34.9932L396.122 35.1603ZM392.929 36.5756L392.533 36.748L392.706 37.1468L393.104 36.9706L392.929 36.5756ZM391.586 33.4909H391.154V33.5809L391.19 33.6634L391.586 33.4909ZM391.586 28.0837H392.018V27.8531L391.827 27.7248L391.586 28.0837ZM388.284 25.8699L388.524 25.5111L388.415 25.4379H388.284V25.8699ZM377.578 25.8699V25.4379H377.146V25.8699H377.578ZM377.578 14.9103V14.4782H377.146V14.9103H377.578ZM377.578 22.3861H377.146V22.8181H377.578V22.3861ZM388.647 22.3861V22.8181H388.805L388.925 22.7161L388.647 22.3861ZM391.223 20.2086L391.502 20.5386L391.655 20.4092V20.2086H391.223ZM391.223 16.8336H391.655V16.6285L391.496 16.4988L391.223 16.8336ZM388.864 14.9103L389.137 14.5754L389.018 14.4782H388.864V14.9103ZM377.578 36.0312V35.5992H373.985V36.0312V36.4633H377.578V36.0312ZM373.985 36.0312H374.417V11.3538H373.985H373.553V36.0312H373.985ZM373.985 11.3538V11.7858H390.134V11.3538V10.9218H373.985V11.3538ZM390.134 11.3538L389.86 11.6876L394.542 15.5344L394.816 15.2006L395.09 14.8668L390.409 11.02L390.134 11.3538ZM394.816 15.2006H394.384V21.7691H394.816H395.248V15.2006H394.816ZM394.816 21.7691L394.535 21.4408L391.777 23.7997L392.058 24.128L392.339 24.4563L395.097 22.0975L394.816 21.7691ZM392.058 24.128L391.816 24.4862L394.937 26.591L395.179 26.2328L395.42 25.8747L392.299 23.7698L392.058 24.128ZM395.179 26.2328H394.747V32.9103H395.179H395.611V26.2328H395.179ZM395.179 32.9103L394.78 33.0774L395.724 35.3274L396.122 35.1603L396.521 34.9932L395.577 32.7432L395.179 32.9103ZM396.122 35.1603L395.947 34.7653L392.754 36.1806L392.929 36.5756L393.104 36.9706L396.297 35.5553L396.122 35.1603ZM392.929 36.5756L393.325 36.4032L391.982 33.3185L391.586 33.4909L391.19 33.6634L392.533 36.748L392.929 36.5756ZM391.586 33.4909H392.018V28.0837H391.586H391.154V33.4909H391.586ZM391.586 28.0837L391.827 27.7248L388.524 25.5111L388.284 25.8699L388.043 26.2288L391.345 28.4425L391.586 28.0837ZM388.284 25.8699V25.4379H377.578V25.8699V26.302H388.284V25.8699ZM377.578 25.8699H377.146V36.0312H377.578H378.01V25.8699H377.578ZM377.578 14.9103H377.146V22.3861H377.578H378.01V14.9103H377.578ZM377.578 22.3861V22.8181H388.647V22.3861V21.954H377.578V22.3861ZM388.647 22.3861L388.925 22.7161L391.502 20.5386L391.223 20.2086L390.944 19.8787L388.368 22.0561L388.647 22.3861ZM391.223 20.2086H391.655V16.8336H391.223H390.791V20.2086H391.223ZM391.223 16.8336L391.496 16.4988L389.137 14.5754L388.864 14.9103L388.591 15.2451L390.95 17.1685L391.223 16.8336ZM388.864 14.9103V14.4782H377.578V14.9103V15.3423H388.864V14.9103ZM411.636 36.0312V36.4633H412.068V36.0312H411.636ZM408.043 36.0312H407.611V36.4633H408.043V36.0312ZM408.043 27.0312H408.475V26.5992H408.043V27.0312ZM406.918 27.0312L406.538 27.235L406.66 27.4633H406.918V27.0312ZM399.152 12.5151L398.947 12.135L398.568 12.3395L398.771 12.7189L399.152 12.5151ZM402.31 10.8094L402.691 10.6059L402.486 10.223L402.104 10.4293L402.31 10.8094ZM409.132 23.5837L408.751 23.7872L408.873 24.0157H409.132V23.5837ZM410.547 23.5837V24.0157H410.807L410.929 23.7872L410.547 23.5837ZM417.37 10.8094L417.575 10.4293L417.193 10.223L416.989 10.6059L417.37 10.8094ZM420.527 12.5151L420.908 12.7189L421.111 12.3395L420.733 12.135L420.527 12.5151ZM412.761 27.0312V27.4633H413.02L413.142 27.235L412.761 27.0312ZM411.636 27.0312V26.5992H411.204V27.0312H411.636ZM411.636 36.0312V35.5992H408.043V36.0312V36.4633H411.636V36.0312ZM408.043 36.0312H408.475V27.0312H408.043H407.611V36.0312H408.043ZM408.043 27.0312V26.5992H406.918V27.0312V27.4633H408.043V27.0312ZM406.918 27.0312L407.299 26.8274L399.533 12.3113L399.152 12.5151L398.771 12.7189L406.538 27.235L406.918 27.0312ZM399.152 12.5151L399.358 12.8952L402.515 11.1895L402.31 10.8094L402.104 10.4293L398.947 12.135L399.152 12.5151ZM402.31 10.8094L401.928 11.013L408.751 23.7872L409.132 23.5837L409.513 23.3801L402.691 10.6059L402.31 10.8094ZM409.132 23.5837V24.0157H410.547V23.5837V23.1516H409.132V23.5837ZM410.547 23.5837L410.929 23.7872L417.751 11.013L417.37 10.8094L416.989 10.6059L410.166 23.3801L410.547 23.5837ZM417.37 10.8094L417.165 11.1895L420.322 12.8952L420.527 12.5151L420.733 12.135L417.575 10.4293L417.37 10.8094ZM420.527 12.5151L420.146 12.3113L412.38 26.8274L412.761 27.0312L413.142 27.235L420.908 12.7189L420.527 12.5151ZM412.761 27.0312V26.5992H411.636V27.0312V27.4633H412.761V27.0312ZM411.636 27.0312H411.204V36.0312H411.636H412.068V27.0312H411.636Z" fill="#FCF3F0" mask="url(#path-3-outside-2_120_290)"/>
<path d="M168.982 71.171C165.705 71.171 163.569 68.7655 163.569 65.6549C163.569 62.5028 165.726 60.118 168.961 60.118C172.092 60.118 174.062 62.5857 174.062 65.406V66.3807H165.664C165.933 68.4129 167.302 69.3046 168.982 69.3046C170.682 69.3046 171.781 68.2678 172.113 67.3346L173.71 68.1848C173.254 69.3669 171.802 71.171 168.982 71.171ZM165.726 64.6387H171.906C171.885 63.3116 170.765 61.9429 168.94 61.9429C167.364 61.9429 166.078 62.8761 165.726 64.6387ZM181.112 71.171C178.374 71.171 176.964 69.5742 176.549 68.2885L178.291 67.4175C178.54 68.2678 179.515 69.3254 181.153 69.3254C182.563 69.3254 183.372 68.7655 183.372 67.9775C183.372 67.3553 182.937 66.8991 182.024 66.7125L179.95 66.3185C178.291 65.9867 177.13 65.0328 177.13 63.2908C177.13 61.4452 178.81 60.118 181.195 60.118C183.849 60.118 185.01 61.6111 185.384 62.7516L183.662 63.5811C183.496 62.7931 182.646 61.9222 181.174 61.9222C179.909 61.9222 179.142 62.5028 179.142 63.2493C179.142 63.9337 179.639 64.3069 180.407 64.4521L182.584 64.8876C184.492 65.2609 185.487 66.4429 185.487 67.9152C185.487 69.8438 183.766 71.171 181.112 71.171ZM189.669 70.9844V62.1295H187.762V60.3046H189.732V57.5466H191.743V60.3046H194.501V62.1295H191.743V69.0351H194.543V70.9844H189.669ZM198.989 71.171C198.138 71.171 197.475 70.5074 197.475 69.6572C197.475 68.807 198.138 68.1434 198.989 68.1434C199.839 68.1434 200.502 68.807 200.502 69.6572C200.502 70.5074 199.839 71.171 198.989 71.171ZM209.855 70.9844V69.0351L214.895 64.0788C216.284 62.6894 216.782 61.9222 216.782 60.7816C216.782 59.4959 215.89 58.2102 214.169 58.2102C212.427 58.2102 211.514 59.4544 211.369 60.8645L209.586 59.9936C209.897 58.2102 211.307 56.2816 214.169 56.2816C217.072 56.2816 218.938 58.4175 218.938 60.7816C218.938 62.3784 218.358 63.5397 216.408 65.406L212.634 69.0351H219.146V70.9844H209.855ZM227.733 71.171C224.187 71.171 222.548 68.1641 222.548 63.7056C222.548 59.2885 224.187 56.2816 227.733 56.2816C231.279 56.2816 232.896 59.2885 232.896 63.7056C232.896 68.1641 231.279 71.171 227.733 71.171ZM224.684 63.7056C224.684 66.8784 225.514 69.2217 227.733 69.2217C229.931 69.2217 230.76 66.8784 230.76 63.7056C230.76 60.5535 229.91 58.2309 227.733 58.2309C225.535 58.2309 224.684 60.5535 224.684 63.7056ZM236.586 70.9844V69.0351L241.625 64.0788C243.014 62.6894 243.512 61.9222 243.512 60.7816C243.512 59.4959 242.62 58.2102 240.899 58.2102C239.157 58.2102 238.245 59.4544 238.099 60.8645L236.316 59.9936C236.627 58.2102 238.037 56.2816 240.899 56.2816C243.802 56.2816 245.669 58.4175 245.669 60.7816C245.669 62.3784 245.088 63.5397 243.139 65.406L239.364 69.0351H245.876V70.9844H236.586ZM254.504 71.171C250.772 71.171 249.278 68.0604 249.278 63.9544C249.278 59.8899 250.813 56.2816 254.732 56.2816C257.615 56.2816 259.004 58.1894 259.357 59.8899L257.573 60.7816C257.387 59.4337 256.454 58.1894 254.712 58.1894C252.202 58.1894 251.352 61.0512 251.352 63.2701C252.057 62.3784 253.239 61.7355 254.732 61.7355C257.802 61.7355 259.481 64.1203 259.481 66.3807C259.481 68.9106 257.573 71.171 254.504 71.171ZM251.663 66.3599C251.663 67.8738 252.679 69.2632 254.525 69.2632C256.35 69.2632 257.366 67.8945 257.366 66.3599C257.366 65.012 256.371 63.6019 254.525 63.6019C252.721 63.6019 251.663 65.012 251.663 66.3599Z" fill="#FCF3F0"/>
</svg>
